<svg class="icon-product icon--instagram" role="presentation" viewBox="0 0 30 30" xmlns="http://www.w3.org/2000/svg">
    <path d="M15 30C6.71572875 30 0 23.2842712 0 15 0 6.71572875 6.71572875 0 15 0c8.2842712 0 15 6.71572875 15 15 0 8.2842712-6.7157288 15-15 15zm.0000159-23.03571429c-2.1823849 0-2.4560363.00925037-3.3131306.0483571-.8553081.03901103-1.4394529.17486384-1.9505835.37352345-.52841925.20532625-.9765517.48009406-1.42331254.926823-.44672894.44676084-.72149675.89489329-.926823 1.42331254-.19865961.5111306-.33451242 1.0952754-.37352345 1.9505835-.03910673.8570943-.0483571 1.1307457-.0483571 3.3131306 0 2.1823531.00925037 2.4560045.0483571 3.3130988.03901103.8553081.17486384 1.4394529.37352345 1.9505835.20532625.5284193.48009406.9765517.926823 1.4233125.44676084.446729.89489329.7214968 1.42331254.9268549.5111306.1986278 1.0952754.3344806 1.9505835.3734916.8570943.0391067 1.1307457.0483571 3.3131306.0483571 2.1823531 0 2.4560045-.0092504 3.3130988-.0483571.8553081-.039011 1.4394529-.1748638 1.9505835-.3734916.5284193-.2053581.9765517-.4801259 1.4233125-.9268549.446729-.4467608.7214968-.8948932.9268549-1.4233125.1986278-.5111306.3344806-1.0952754.3734916-1.9505835.0391067-.8570943.0483571-1.1307457.0483571-3.3130988 0-2.1823849-.0092504-2.4560363-.0483571-3.3131306-.039011-.8553081-.1748638-1.4394529-.3734916-1.9505835-.2053581-.52841925-.4801259-.9765517-.9268549-1.42331254-.4467608-.44672894-.8948932-.72149675-1.4233125-.926823-.5111306-.19865961-1.0952754-.33451242-1.9505835-.37352345-.8570943-.03910673-1.1307457-.0483571-3.3130988-.0483571zm0 1.44787387c2.1456068 0 2.3997686.00819774 3.2471022.04685789.7834742.03572556 1.2089592.1666342 1.4921162.27668167.3750864.14577303.6427729.31990322.9239522.60111439.2812111.28117926.4553413.54886575.6011144.92395217.1100474.283157.2409561.708642.2766816 1.4921162.0386602.8473336.0468579 1.1014954.0468579 3.247134 0 2.1456068-.0081977 2.3997686-.0468579 3.2471022-.0357255.7834742-.1666342 1.2089592-.2766816 1.4921162-.1457731.3750864-.3199033.6427729-.6011144.9239522-.2811793.2812111-.5488658.4553413-.9239522.6011144-.283157.1100474-.708642.2409561-1.4921162.2766816-.847206.0386602-1.1013359.0468579-3.2471022.0468579-2.1457981 0-2.3998961-.0081977-3.247134-.0468579-.7834742-.0357255-1.2089592-.1666342-1.4921162-.2766816-.37508642-.1457731-.64277291-.3199033-.92395217-.6011144-.28117927-.2811793-.45534136-.5488658-.60111439-.9239522-.11004747-.283157-.24095611-.708642-.27668167-1.4921162-.03866015-.8473336-.04685789-1.1014954-.04685789-3.2471022 0-2.1456386.00819774-2.3998004.04685789-3.247134.03572556-.7834742.1666342-1.2089592.27668167-1.4921162.14577303-.37508642.31990322-.64277291.60111439-.92395217.28117926-.28121117.54886575-.45534136.92395217-.60111439.283157-.11004747.708642-.24095611 1.4921162-.27668167.8473336-.03866015 1.1014954-.04685789 3.247134-.04685789zm0 9.26641182c-1.479357 0-2.6785873-1.1992303-2.6785873-2.6785555 0-1.479357 1.1992303-2.6785873 2.6785873-2.6785873 1.4793252 0 2.6785555 1.1992303 2.6785555 2.6785873 0 1.4793252-1.1992303 2.6785555-2.6785555 2.6785555zm0-6.8050167c-2.2790034 0-4.1264612 1.8474578-4.1264612 4.1264612 0 2.2789716 1.8474578 4.1264294 4.1264612 4.1264294 2.2789716 0 4.1264294-1.8474578 4.1264294-4.1264294 0-2.2790034-1.8474578-4.1264612-4.1264294-4.1264612zm5.2537621-.1630297c0-.532566-.431737-.96430298-.964303-.96430298-.532534 0-.964271.43173698-.964271.96430298 0 .5325659.431737.964271.964271.964271.532566 0 .964303-.4317051.964303-.964271z" fill="#d83576" fill-rule="evenodd"></path>
</svg>