<svg class="icon-product icon--pinterest" role="presentation" viewBox="0 0 30 30" xmlns="http://www.w3.org/2000/svg">
    <path d="M15 30C6.71572875 30 0 23.2842712 0 15 0 6.71572875 6.71572875 0 15 0c8.2842712 0 15 6.71572875 15 15 0 8.2842712-6.7157288 15-15 15zm-.4492946-22.49876954c-.3287968.04238918-.6577148.08477836-.9865116.12714793-.619603.15784625-1.2950238.30765013-1.7959124.60980792-1.3367356.80672832-2.26284291 1.74754848-2.88355361 3.27881599-.1001431.247352-.10374313.4870343-.17702448.7625149-.47574032 1.7840923.36779138 3.6310327 1.39120339 4.2696951.1968419.1231267.6448551.3405257.8093833.0511377.0909873-.1603963.0706852-.3734014.1265202-.5593764.036883-.1231267.1532436-.3547666.1263818-.508219-.0455542-.260514-.316041-.4256572-.4299438-.635367-.230748-.4253041-.2421365-.8027267-.3541701-1.3723228.0084116-.0763633.0168405-.1527266.0253733-.2290899.0340445-.6372108.1384107-1.0968422.3287968-1.5502554.5593198-1.3317775 1.4578212-2.07273488 2.9088231-2.5163011.324591-.09899963 1.2400541-.25867013 1.7200175-.1523539.2867042.05078464.5734084.10156927.8600087.1523539 1.0390064.33760307 1.7953931.9602003 2.2007079 1.9316992.252902.6061594.3275507 1.7651044.1517724 2.5415071-.0833199.3679287-.0705641.6832289-.1770418 1.0168107-.3936666 1.2334841-.9709174 2.3763639-2.2765854 2.6942337-.8613761.2093567-1.5070793-.3321303-1.7200175-.8896824-.0589159-.1545509-.1598205-.4285603-.1011297-.6865243.2277711-1.0010987.5562045-1.8969797.8093661-2.8969995.24115-.9528838-.2166421-1.7048063-.9358863-1.8809146-.8949186-.2192233-1.585328.6350139-1.8211644 1.1943903-.1872881.4442919-.3005678 1.2641823-.1517724 1.8557085.0471811.1874265.2666617.689447.2276672.8640842-.1728187.7731269-.3685356 1.6039823-.5818373 2.3635745-.2219729.7906632-.3415527 1.5999416-.5564641 2.3639276-.098793.3507651-.0955738.7263439-.1770244 1.092821v.5337977c-.0739045.3379758-.0194367.9375444.0505042 1.2703809.0449484.2137505-.0261175.4786388.0758948.6357396.0020943.1140055.0159752.1388388.0506254.2031582.3168026-.0095136.7526829-.8673992.9106342-1.118027.3008274-.477913.5797431-.990879.8093833-1.5506281.2069844-.5042174.2391769-1.0621226.4046917-1.60104.1195798-.3894861.2889369-.843272.328918-1.2707535h.0252521c.065614.2342095.3033024.403727.4805692.5334446.5563429.4077482 1.5137774.7873678 2.5547742.5337977 1.1769151-.2868184 2.1141687-.8571599 2.7317812-1.702982.4549537-.6225776.7983583-1.3445472 1.0624066-2.1600633.1297394-.4011574.156982-.8454494.2529193-1.2711066.2405269-1.0661438-.0797199-2.3511383-.3794396-3.0497261-.9078995-2.11694836-2.8374975-3.32410832-5.918897-3.27881604z" fill="#bd081c" fill-rule="evenodd"></path>
</svg>