<?xml version="1.0" encoding="iso-8859-1"?>
<!-- Generator: Adobe Illustrator 19.0.0, SVG Export Plug-In . SVG Version: 6.00 Build 0)  -->
<svg version="1.1" id="Capa_1" xmlns="http://www.w3.org/2000/svg" xmlns:xlink="http://www.w3.org/1999/xlink" x="0px" y="0px"
	 viewBox="0 0 512 512" style="enable-background:new 0 0 512 512;" xml:space="preserve">
<g>
	<g>
		<path d="M385.782,219.44h-4.839v-94.498C380.943,56.049,324.894,0,256.001,0S131.057,56.049,131.057,124.942v94.498h-4.839
			c-19.169,0-34.764,15.596-34.764,34.764v188.981c0,37.944,30.871,68.815,68.814,68.815h191.463
			c37.944,0,68.814-30.871,68.814-68.815V254.204C420.546,235.036,404.951,219.44,385.782,219.44z M161.011,124.942h0.001
			c0-52.377,42.611-94.987,94.987-94.987s94.987,42.611,94.987,94.987v94.498h-14.683v-95.038c0-44.28-36.024-80.304-80.304-80.304
			s-80.304,36.024-80.304,80.304v95.038h-14.684V124.942z M306.349,124.402v95.038H205.652v-95.038
			c0-27.763,22.586-50.349,50.349-50.349S306.349,96.64,306.349,124.402z M390.59,443.185L390.59,443.185
			c0,21.427-17.432,38.86-38.859,38.86H160.27c-21.427,0-38.859-17.432-38.859-38.86V254.204c0-2.652,2.158-4.809,4.809-4.809
			h259.562c2.651,0,4.809,2.158,4.809,4.809V443.185z"/>
	</g>
</g>
<g>
	<g>
		<path d="M311.81,325.678c-5.617-6.075-15.092-6.443-21.164-0.825l-50.586,46.81l-16.534-16.534
			c-5.848-5.849-15.332-5.849-21.181,0c-5.849,5.849-5.849,15.332,0,21.181l26.723,26.723c0.127,0.127,0.265,0.236,0.395,0.357
			c0.185,0.172,0.368,0.344,0.559,0.506c0.205,0.173,0.416,0.333,0.628,0.493c0.198,0.15,0.393,0.301,0.597,0.439
			c0.223,0.152,0.452,0.289,0.682,0.427c0.203,0.122,0.403,0.249,0.61,0.36c0.245,0.133,0.496,0.249,0.747,0.366
			c0.201,0.094,0.398,0.195,0.602,0.28c0.271,0.113,0.545,0.206,0.821,0.303c0.193,0.067,0.382,0.143,0.577,0.202
			c0.299,0.091,0.602,0.161,0.906,0.233c0.177,0.042,0.352,0.094,0.53,0.13c0.343,0.068,0.688,0.113,1.034,0.157
			c0.143,0.018,0.285,0.048,0.428,0.062c0.49,0.048,0.982,0.074,1.474,0.074c0.001,0,0.001,0,0.002,0c0,0,0.001,0,0.002,0
			c0.467,0,0.936-0.023,1.402-0.067c0.137-0.013,0.273-0.04,0.409-0.056c0.329-0.04,0.656-0.08,0.982-0.142
			c0.172-0.032,0.34-0.08,0.511-0.119c0.288-0.065,0.575-0.128,0.859-0.21c0.188-0.054,0.371-0.123,0.558-0.185
			c0.262-0.087,0.523-0.172,0.781-0.274c0.197-0.078,0.387-0.169,0.581-0.255c0.241-0.107,0.481-0.213,0.717-0.332
			c0.199-0.102,0.392-0.216,0.587-0.327c0.223-0.127,0.444-0.253,0.662-0.391c0.196-0.125,0.384-0.262,0.575-0.396
			c0.209-0.148,0.417-0.296,0.62-0.456c0.184-0.145,0.36-0.299,0.538-0.452c0.127-0.11,0.261-0.208,0.384-0.323l61.162-56.595
			C317.061,341.226,317.428,331.749,311.81,325.678z"/>
	</g>
</g>
<g>
</g>
<g>
</g>
<g>
</g>
<g>
</g>
<g>
</g>
<g>
</g>
<g>
</g>
<g>
</g>
<g>
</g>
<g>
</g>
<g>
</g>
<g>
</g>
<g>
</g>
<g>
</g>
<g>
</g>
</svg>
